<mxfile host="65bd71144e">
    <diagram id="UeUUvHA1h7PJm3-ELxiB" name="Agv架构图---提供销售">
        <mxGraphModel dx="714" dy="615" grid="0" gridSize="10" guides="1" tooltips="1" connect="1" arrows="1" fold="1" page="1" pageScale="1" pageWidth="827" pageHeight="1169" math="0" shadow="0">
            <root>
                <mxCell id="0"/>
                <mxCell id="1" parent="0"/>
                <mxCell id="2" value="RCS系统" style="shape=ext;double=1;rounded=1;whiteSpace=wrap;html=1;fillColor=#76608a;fontColor=#ffffff;strokeColor=#432D57;" parent="1" vertex="1">
                    <mxGeometry x="300" y="150" width="170" height="80" as="geometry"/>
                </mxCell>
                <mxCell id="3" value="AGV上位机" style="shape=ext;double=1;rounded=1;whiteSpace=wrap;html=1;fillColor=#a0522d;fontColor=#ffffff;strokeColor=#6D1F00;" parent="1" vertex="1">
                    <mxGeometry x="310" y="330" width="170" height="80" as="geometry"/>
                </mxCell>
                <mxCell id="4" value="" style="shape=flexArrow;endArrow=classic;startArrow=classic;html=1;entryX=0.5;entryY=1;entryDx=0;entryDy=0;exitX=0.442;exitY=-0.003;exitDx=0;exitDy=0;exitPerimeter=0;" parent="1" source="3" target="2" edge="1">
                    <mxGeometry width="100" height="100" relative="1" as="geometry">
                        <mxPoint x="360" y="330" as="sourcePoint"/>
                        <mxPoint x="460" y="230" as="targetPoint"/>
                    </mxGeometry>
                </mxCell>
                <mxCell id="7" value="AGV下位机" style="shape=ext;double=1;rounded=1;whiteSpace=wrap;html=1;" parent="1" vertex="1">
                    <mxGeometry x="310" y="470" width="170" height="80" as="geometry"/>
                </mxCell>
                <mxCell id="11" style="edgeStyle=none;html=1;exitX=0.1;exitY=0.5;exitDx=0;exitDy=0;exitPerimeter=0;entryX=0.5;entryY=1;entryDx=0;entryDy=0;" parent="1" source="8" target="7" edge="1">
                    <mxGeometry relative="1" as="geometry"/>
                </mxCell>
                <mxCell id="8" value="" style="shape=curlyBracket;whiteSpace=wrap;html=1;rounded=1;flipH=1;size=0.5;rotation=-90;" parent="1" vertex="1">
                    <mxGeometry x="350" y="520" width="90" height="180" as="geometry"/>
                </mxCell>
                <mxCell id="9" value="传感器" style="shape=ext;double=1;rounded=1;whiteSpace=wrap;html=1;" parent="1" vertex="1">
                    <mxGeometry x="220" y="650" width="170" height="80" as="geometry"/>
                </mxCell>
                <mxCell id="10" value="执行器" style="shape=ext;double=1;rounded=1;whiteSpace=wrap;html=1;" parent="1" vertex="1">
                    <mxGeometry x="414" y="650" width="170" height="80" as="geometry"/>
                </mxCell>
                <mxCell id="13" value="" style="shape=doubleArrow;direction=south;whiteSpace=wrap;html=1;" parent="1" vertex="1">
                    <mxGeometry x="370" y="410" width="30" height="60" as="geometry"/>
                </mxCell>
                <mxCell id="14" value="" style="endArrow=none;dashed=1;html=1;dashPattern=1 3;strokeWidth=2;" parent="1" edge="1">
                    <mxGeometry width="50" height="50" relative="1" as="geometry">
                        <mxPoint x="120" y="320" as="sourcePoint"/>
                        <mxPoint x="650" y="320" as="targetPoint"/>
                    </mxGeometry>
                </mxCell>
                <mxCell id="15" value="" style="endArrow=none;dashed=1;html=1;dashPattern=1 3;strokeWidth=2;" parent="1" edge="1">
                    <mxGeometry width="50" height="50" relative="1" as="geometry">
                        <mxPoint x="120" y="760" as="sourcePoint"/>
                        <mxPoint x="650" y="760" as="targetPoint"/>
                    </mxGeometry>
                </mxCell>
                <mxCell id="16" value="" style="endArrow=none;dashed=1;html=1;dashPattern=1 3;strokeWidth=2;" parent="1" edge="1">
                    <mxGeometry width="50" height="50" relative="1" as="geometry">
                        <mxPoint x="120" y="320" as="sourcePoint"/>
                        <mxPoint x="120" y="760" as="targetPoint"/>
                    </mxGeometry>
                </mxCell>
                <mxCell id="17" value="" style="endArrow=none;dashed=1;html=1;dashPattern=1 3;strokeWidth=2;" parent="1" edge="1">
                    <mxGeometry width="50" height="50" relative="1" as="geometry">
                        <mxPoint x="650" y="760" as="sourcePoint"/>
                        <mxPoint x="650" y="320" as="targetPoint"/>
                    </mxGeometry>
                </mxCell>
                <mxCell id="18" value="Agv单车" style="text;html=1;strokeColor=#3A5431;fillColor=#6d8764;align=center;verticalAlign=middle;whiteSpace=wrap;rounded=0;fontColor=#ffffff;" parent="1" vertex="1">
                    <mxGeometry x="150" y="410" width="60" height="30" as="geometry"/>
                </mxCell>
                <mxCell id="19" value="中控与单车通讯协议" style="text;html=1;strokeColor=#3A5431;fillColor=#6d8764;align=center;verticalAlign=middle;whiteSpace=wrap;rounded=0;fontColor=#ffffff;" parent="1" vertex="1">
                    <mxGeometry x="410" y="250" width="120" height="30" as="geometry"/>
                </mxCell>
                <mxCell id="21" value="客户调度系统，直接控制单车" style="shape=ext;double=1;rounded=1;whiteSpace=wrap;html=1;fillColor=#008a00;fontColor=#ffffff;strokeColor=#005700;" parent="1" vertex="1">
                    <mxGeometry x="70" y="150" width="190" height="80" as="geometry"/>
                </mxCell>
                <mxCell id="22" value="" style="shape=flexArrow;endArrow=classic;startArrow=classic;html=1;entryX=0.5;entryY=1;entryDx=0;entryDy=0;width=8;startSize=10.77;" parent="1" target="21" edge="1">
                    <mxGeometry width="100" height="100" relative="1" as="geometry">
                        <mxPoint x="310" y="350" as="sourcePoint"/>
                        <mxPoint x="410" y="250" as="targetPoint"/>
                    </mxGeometry>
                </mxCell>
                <mxCell id="23" value="客户系统，通过RCS控制单车" style="shape=ext;double=1;rounded=1;whiteSpace=wrap;html=1;fillColor=#60a917;fontColor=#ffffff;strokeColor=#2D7600;" parent="1" vertex="1">
                    <mxGeometry x="570" y="150" width="190" height="80" as="geometry"/>
                </mxCell>
                <mxCell id="24" value="" style="shape=doubleArrow;whiteSpace=wrap;html=1;" parent="1" vertex="1">
                    <mxGeometry x="470" y="175" width="100" height="30" as="geometry"/>
                </mxCell>
                <mxCell id="25" value="RCS接口文档" style="text;html=1;strokeColor=#3A5431;fillColor=#6d8764;align=center;verticalAlign=middle;whiteSpace=wrap;rounded=0;fontColor=#ffffff;" parent="1" vertex="1">
                    <mxGeometry x="490" y="130" width="60" height="30" as="geometry"/>
                </mxCell>
            </root>
        </mxGraphModel>
    </diagram>
    <diagram id="E_fMFA2ONHVEeAM2hEj1" name="超宽检测逻辑">
        <mxGraphModel dx="928" dy="615" grid="0" gridSize="10" guides="1" tooltips="1" connect="1" arrows="1" fold="1" page="1" pageScale="1" pageWidth="827" pageHeight="1169" math="0" shadow="0">
            <root>
                <mxCell id="TrK0Z_bPl-hHN2-HHq4Y-0"/>
                <mxCell id="TrK0Z_bPl-hHN2-HHq4Y-1" parent="TrK0Z_bPl-hHN2-HHq4Y-0"/>
                <mxCell id="40yypHXOEdK6i7LYKkB_-8" value="" style="edgeStyle=none;html=1;" edge="1" parent="TrK0Z_bPl-hHN2-HHq4Y-1" source="40yypHXOEdK6i7LYKkB_-0" target="40yypHXOEdK6i7LYKkB_-1">
                    <mxGeometry relative="1" as="geometry"/>
                </mxCell>
                <mxCell id="40yypHXOEdK6i7LYKkB_-0" value="小车移动到检测点" style="rounded=1;whiteSpace=wrap;html=1;fillColor=#6d8764;fontColor=#ffffff;strokeColor=#3A5431;" vertex="1" parent="TrK0Z_bPl-hHN2-HHq4Y-1">
                    <mxGeometry x="127" y="70" width="196" height="60" as="geometry"/>
                </mxCell>
                <mxCell id="40yypHXOEdK6i7LYKkB_-9" value="" style="edgeStyle=none;html=1;" edge="1" parent="TrK0Z_bPl-hHN2-HHq4Y-1" source="40yypHXOEdK6i7LYKkB_-1" target="40yypHXOEdK6i7LYKkB_-2">
                    <mxGeometry relative="1" as="geometry"/>
                </mxCell>
                <mxCell id="40yypHXOEdK6i7LYKkB_-1" value="接收超宽检测任务（TaskDetectPallet）" style="rounded=1;whiteSpace=wrap;html=1;fillColor=#6d8764;fontColor=#ffffff;strokeColor=#3A5431;" vertex="1" parent="TrK0Z_bPl-hHN2-HHq4Y-1">
                    <mxGeometry x="127" y="190" width="196" height="60" as="geometry"/>
                </mxCell>
                <mxCell id="40yypHXOEdK6i7LYKkB_-10" value="" style="edgeStyle=none;html=1;" edge="1" parent="TrK0Z_bPl-hHN2-HHq4Y-1" source="40yypHXOEdK6i7LYKkB_-2" target="40yypHXOEdK6i7LYKkB_-7">
                    <mxGeometry relative="1" as="geometry"/>
                </mxCell>
                <mxCell id="40yypHXOEdK6i7LYKkB_-11" value="" style="edgeStyle=none;html=1;" edge="1" parent="TrK0Z_bPl-hHN2-HHq4Y-1" source="40yypHXOEdK6i7LYKkB_-2" target="40yypHXOEdK6i7LYKkB_-5">
                    <mxGeometry relative="1" as="geometry"/>
                </mxCell>
                <mxCell id="40yypHXOEdK6i7LYKkB_-2" value="是否超宽" style="rhombus;whiteSpace=wrap;html=1;fillColor=#e51400;fontColor=#ffffff;strokeColor=#B20000;" vertex="1" parent="TrK0Z_bPl-hHN2-HHq4Y-1">
                    <mxGeometry x="150" y="310" width="150" height="80" as="geometry"/>
                </mxCell>
                <mxCell id="40yypHXOEdK6i7LYKkB_-4" value="报警停车" style="rounded=1;whiteSpace=wrap;html=1;fillColor=#a20025;fontColor=#ffffff;strokeColor=#6F0000;" vertex="1" parent="TrK0Z_bPl-hHN2-HHq4Y-1">
                    <mxGeometry x="590" y="320" width="196" height="60" as="geometry"/>
                </mxCell>
                <mxCell id="40yypHXOEdK6i7LYKkB_-12" value="" style="edgeStyle=none;html=1;" edge="1" parent="TrK0Z_bPl-hHN2-HHq4Y-1" source="40yypHXOEdK6i7LYKkB_-5" target="40yypHXOEdK6i7LYKkB_-4">
                    <mxGeometry relative="1" as="geometry"/>
                </mxCell>
                <mxCell id="40yypHXOEdK6i7LYKkB_-13" value="" style="edgeStyle=none;html=1;" edge="1" parent="TrK0Z_bPl-hHN2-HHq4Y-1" source="40yypHXOEdK6i7LYKkB_-5" target="40yypHXOEdK6i7LYKkB_-6">
                    <mxGeometry relative="1" as="geometry"/>
                </mxCell>
                <mxCell id="40yypHXOEdK6i7LYKkB_-5" value="超宽是否需要报警" style="rhombus;whiteSpace=wrap;html=1;fillColor=#e51400;fontColor=#ffffff;strokeColor=#B20000;" vertex="1" parent="TrK0Z_bPl-hHN2-HHq4Y-1">
                    <mxGeometry x="380" y="310" width="150" height="80" as="geometry"/>
                </mxCell>
                <mxCell id="40yypHXOEdK6i7LYKkB_-6" value="中控根据超宽结果发送离开任务" style="rounded=1;whiteSpace=wrap;html=1;fillColor=#008a00;fontColor=#ffffff;strokeColor=#005700;" vertex="1" parent="TrK0Z_bPl-hHN2-HHq4Y-1">
                    <mxGeometry x="357" y="470" width="196" height="60" as="geometry"/>
                </mxCell>
                <mxCell id="40yypHXOEdK6i7LYKkB_-7" value="中控根据超宽结果发送取、放货任务" style="rounded=1;whiteSpace=wrap;html=1;fillColor=#008a00;fontColor=#ffffff;strokeColor=#005700;" vertex="1" parent="TrK0Z_bPl-hHN2-HHq4Y-1">
                    <mxGeometry x="127" y="470" width="196" height="60" as="geometry"/>
                </mxCell>
                <mxCell id="40yypHXOEdK6i7LYKkB_-14" value="是" style="text;html=1;strokeColor=none;fillColor=none;align=center;verticalAlign=middle;whiteSpace=wrap;rounded=0;" vertex="1" parent="TrK0Z_bPl-hHN2-HHq4Y-1">
                    <mxGeometry x="310" y="310" width="60" height="30" as="geometry"/>
                </mxCell>
                <mxCell id="40yypHXOEdK6i7LYKkB_-15" value="是" style="text;html=1;strokeColor=none;fillColor=none;align=center;verticalAlign=middle;whiteSpace=wrap;rounded=0;" vertex="1" parent="TrK0Z_bPl-hHN2-HHq4Y-1">
                    <mxGeometry x="520" y="310" width="60" height="30" as="geometry"/>
                </mxCell>
                <mxCell id="40yypHXOEdK6i7LYKkB_-16" value="否" style="text;html=1;strokeColor=none;fillColor=none;align=center;verticalAlign=middle;whiteSpace=wrap;rounded=0;" vertex="1" parent="TrK0Z_bPl-hHN2-HHq4Y-1">
                    <mxGeometry x="240" y="400" width="60" height="30" as="geometry"/>
                </mxCell>
                <mxCell id="40yypHXOEdK6i7LYKkB_-17" value="否" style="text;html=1;strokeColor=none;fillColor=none;align=center;verticalAlign=middle;whiteSpace=wrap;rounded=0;" vertex="1" parent="TrK0Z_bPl-hHN2-HHq4Y-1">
                    <mxGeometry x="470" y="400" width="60" height="30" as="geometry"/>
                </mxCell>
            </root>
        </mxGraphModel>
    </diagram>
</mxfile>